<svg width="66.146mm" height="70.53mm" version="1.1" viewBox="0 0 66.146 70.53" xmlns="http://www.w3.org/2000/svg">
 <g transform="translate(8.5749 -155.77)">
  <g transform="matrix(.071969 0 0 .071969 -11.486 155.05)" style="fill:#4080BF">
   <g transform="matrix(.1 0 0 -.1 0 512)" style="fill:#4080BF">
    <path d="m2885.7 4994.6c-310.1-76.6-553.2-329.3-620.2-639.4-13.4-61.3-21.1-312-21.1-635.6v-536h-536c-323.5 0-574.3-7.7-635.6-21.1-317.8-68.9-576.2-327.4-645.1-645.1-34.5-160.8-28.7-6527.9 5.7-6656.2 80.4-306.3 308.2-534.1 614.5-614.5 78.5-21.1 641.3-26.8 3034.2-26.8s2955.7 5.8 3034.2 26.8c304.4 80.4 534.1 310.1 614.5 614.5 19.1 68.9 26.8 247 26.8 647v549.4h536c323.5 0 574.3 7.7 635.6 21.1 306.3 65.1 557.1 308.2 639.4 620.3 21.1 78.5 26.8 572.4 26.8 2609.2 0 2262.8-3.8 2519.3-30.6 2574.8-42.1 84.2-2010 2056-2098.1 2101.9-68.9 34.5-132.1 36.4-2278 34.5-1688.5-1.8-2230.3-7.6-2303-24.8zm4014.4-1531.5c5.7-920.8 7.6-947.6 45.9-1001.2 21.1-28.7 76.6-72.7 122.5-95.7 84.2-44 88-44 999.3-44h915l-3.8-2258.9-5.7-2258.9-63.2-61.3-61.3-63.2h-5857.8l-61.3 63.2-63.2 61.3v6466.6l47.9 51.7c26.8 28.7 65.1 59.3 86.1 67 21.1 9.6 905.5 17.2 1966 17.2l1927.7 1.9zm1192.6 46 574.3-574.3h-1158.1v574.3c0 315.9 1.9 574.3 5.7 574.3 1.9 0 262.2-258.4 578.1-574.3zm-5848.3-3325.2c0-1933.5 5.7-2408.2 26.8-2484.8 82.3-312 333.1-555.2 639.4-620.3 70.8-15.3 710.2-21.1 2168.9-21.1h2067.5l-11.4-1091.2-63.2-61.3-61.3-63.2h-5857.9l-61.3 63.2-63.2 61.3v6466.6l47.9 51.7c26.8 28.7 65.1 59.4 86.1 67 21.1 9.6 273.8 17.2 560.9 17.2l520.7 1.9v-2387z" style="fill:#f0f0f0"/>
    <path d="m3651.4 3769.4c-128.3-55.5-201-202.9-174.2-346.5 17.2-90 112.9-195.3 199.1-220.1 47.9-15.3 453.7-19.1 1242.4-15.3 1152.4 5.7 1171.6 5.7 1225.2 45.9 187.6 139.7 187.6 373.3 0 513-53.6 40.2-70.8 40.2-1244.3 44-961 3.9-1202.2 0.1-1248.2-21z" style="fill:#f0f0f0"/>
    <path d="m3651.4 2544.3c-128.3-55.5-201-202.9-174.2-346.5 17.2-90 112.9-195.3 199.1-220.2 47.9-15.3 453.7-19.1 1242.4-15.3 1152.4 5.7 1171.6 5.7 1225.2 45.9 187.6 139.7 187.6 373.3 0 513-53.6 40.2-70.8 40.2-1244.3 44-961 3.9-1202.2 0.1-1248.2-20.9z" style="fill:#f0f0f0"/>
    <path d="m3651.4 1319.1c-128.3-55.5-201-202.9-174.2-346.5 17.2-90 112.9-195.3 199.1-220.1 47.9-15.3 767.6-19.1 2285.7-15.3 2201.5 5.7 2214.9 5.7 2266.6 45.9 101.5 74.7 132.1 135.9 132.1 256.5s-30.6 181.9-132.1 256.5c-51.7 40.2-63.2 40.2-2285.7 44-1828.2 3.9-2245.5 0.1-2291.5-21z" style="fill:#f0f0f0"/>
    <path d="m3651.4 93.9c-128.3-55.5-201-202.9-174.2-346.5 17.2-90 112.9-195.3 199.1-220.2 47.9-15.3 629.8-19.1 1826.3-15.3 1738.2 5.7 1755.4 5.7 1807.1 46 101.5 74.6 132.1 135.9 132.1 256.5s-30.6 181.9-132.1 256.5c-51.7 40.2-68.9 40.2-1826.3 44-1445.3 3.9-1786 0.1-1832-21z" style="fill:#f0f0f0"/>
   </g>
  </g>
 </g>
</svg>
